<svg width="18" height="8" viewBox="0 0 18 8" fill="none" xmlns="http://www.w3.org/2000/svg">
<path d="M9.00002 0.499879C9.19945 0.499544 9.39372 0.561447 9.55427 0.676482L17.1228 6.11045C17.3216 6.25336 17.454 6.46724 17.4907 6.70502C17.5273 6.9428 17.4654 7.18501 17.3184 7.37837C17.1714 7.57173 16.9514 7.70039 16.7068 7.73606C16.4623 7.77173 16.2131 7.71147 16.0143 7.56856L9.00002 2.53761L1.98577 7.56856C1.78689 7.71147 1.53777 7.77173 1.2932 7.73606C1.04863 7.70039 0.828657 7.57173 0.681662 7.37837C0.534667 7.18501 0.472695 6.9428 0.509379 6.70502C0.546065 6.46723 0.678402 6.25336 0.87728 6.11044L8.44577 0.676482C8.60631 0.561447 8.80059 0.499544 9.00002 0.499879Z" fill="#FF3D00"/>
</svg>
