<svg width="18" height="8" viewBox="0 0 18 8" fill="none" xmlns="http://www.w3.org/2000/svg">
<path d="M8.99986 7.74524C8.80043 7.74557 8.60615 7.68367 8.44561 7.56863L0.87712 2.13467C0.778646 2.06391 0.695473 1.97498 0.632349 1.87296C0.569225 1.77094 0.527386 1.65784 0.509222 1.5401C0.472536 1.30232 0.534508 1.06011 0.681503 0.866747C0.828499 0.67339 1.04848 0.544725 1.29304 0.509057C1.53761 0.47339 1.78674 0.533642 1.98561 0.676559L8.99986 5.7075L16.0141 0.67656C16.1126 0.605795 16.2244 0.55458 16.3433 0.52584C16.4621 0.4971 16.5856 0.491398 16.7067 0.509058C16.8278 0.526719 16.9441 0.567397 17.049 0.628769C17.154 0.690142 17.2454 0.771007 17.3182 0.866748C17.391 0.962489 17.4437 1.07123 17.4732 1.18677C17.5028 1.3023 17.5087 1.42236 17.4905 1.5401C17.4723 1.65784 17.4305 1.77094 17.3674 1.87296C17.3042 1.97498 17.2211 2.06391 17.1226 2.13467L9.55411 7.56863C9.39357 7.68367 9.19929 7.74557 8.99986 7.74524Z" fill="#7AE229"/>
</svg>
